<?xml version="1.0" encoding="utf-8"?>
<!-- Generator: Adobe Illustrator 28.0.0, SVG Export Plug-In . SVG Version: 6.00 Build 0)  -->
<svg version="1.1" id="Capa_1" xmlns="http://www.w3.org/2000/svg" xmlns:xlink="http://www.w3.org/1999/xlink" x="0px" y="0px"
	 viewBox="0 0 800 800" style="enable-background:new 0 0 800 800;" xml:space="preserve">
<style type="text/css">
	.st0{fill:#EDFF00;}
</style>
<g>
	<polygon class="st0" points="580.7,334.9 219.3,334.9 132.5,511.2 667.5,511.2 	"/>
	<path class="st0" d="M791.7,763.4L707,591.3H93L8.3,763.4c-3.9,7.9-3.4,17.2,1.2,24.6c4.6,7.4,12.8,12,21.6,12h737.8
		c8.8,0,16.9-4.5,21.6-12C795.1,780.6,795.5,771.3,791.7,763.4z"/>
	<path class="st0" d="M422.8,14.2C418.5,5.5,409.7,0,400,0c-9.7,0-18.5,5.5-22.8,14.2L258.8,254.7h282.4L422.8,14.2z"/>
</g>
</svg>
